<?xml version="1.0" standalone="no"?>
<!DOCTYPE svg PUBLIC "-//W3C//DTD SVG 20010904//EN"
 "http://www.w3.org/TR/2001/REC-SVG-20010904/DTD/svg10.dtd">
<svg version="1.0" xmlns="http://www.w3.org/2000/svg"
 width="512.000000pt" height="512.000000pt" viewBox="0 0 512.000000 512.000000"
 preserveAspectRatio="xMidYMid meet">
<metadata>
Created by potrace 1.14, written by Peter Selinger 2001-2017
</metadata>
<g transform="translate(0.000000,512.000000) scale(0.100000,-0.100000)"
fill="#000000" stroke="none">
<path d="M1410 4469 c-76 -31 -71 -22 -537 -952 l-447 -892 0 -65 0 -65 449
-895 c432 -859 452 -896 493 -925 l44 -30 1148 0 1148 0 44 30 c41 29 61 66
493 925 l449 895 0 65 0 65 -449 895 c-432 859 -452 896 -493 925 l-44 30
-1136 2 c-734 1 -1146 -2 -1162 -8z m2395 -1049 c173 -346 315 -632 315 -635
0 -3 -369 -5 -820 -5 l-820 0 -315 630 c-173 346 -315 632 -315 635 0 3 369 5
820 5 l820 0 315 -630z m-2009 -1467 l-304 -608 -303 608 -304 607 304 607
303 608 304 -608 304 -607 -304 -607z m2324 382 c0 -3 -142 -289 -315 -635
l-315 -630 -820 0 c-451 0 -820 2 -820 5 0 3 142 289 315 635 l315 630 820 0
c451 0 820 -2 820 -5z"/>
</g>
</svg>
